<?xml version="1.0" encoding="utf-8"?>
<!-- Generator: Adobe Illustrator 24.1.2, SVG Export Plug-In . SVG Version: 6.00 Build 0)  -->
<svg version="1.1" id="Layer_1" xmlns="http://www.w3.org/2000/svg" xmlns:xlink="http://www.w3.org/1999/xlink" x="0px" y="0px"
	 viewBox="0 0 100 100" style="enable-background:new 0 0 100 100;" xml:space="preserve">
<style type="text/css">
	.st0{stroke:#000000;stroke-linecap:round;stroke-linejoin:round;stroke-miterlimit:10;}
	.st1{fill:#FFFFFF;stroke:#FFFFFF;stroke-linecap:round;stroke-linejoin:round;stroke-miterlimit:10;}
</style>
<path d="M50,14c-19.9,0-36,16.1-36,36s16.1,36,36,36s36-16.1,36-36S69.9,14,50,14z M50,16c18.8,0,34,15.2,34,34S68.8,84,50,84
	S16,68.8,16,50S31.2,16,50,16z M50,19c-17.1,0-31,13.9-31,31s13.9,31,31,31s31-13.9,31-31c0-8.7-3.7-17.1-10.2-23
	c-0.2-0.2-0.5-0.2-0.7,0c-0.2,0.2-0.2,0.5,0,0.7C76.4,33.5,80,41.6,80,50c0,16.5-13.5,30-30,30S20,66.5,20,50s13.5-30,30-30
	c3.6,0,7,0.6,10.3,1.8c0.3,0.1,0.5,0,0.6-0.3s0-0.5-0.3-0.6C57.3,19.6,53.7,19,50,19z M63.5,22.1c-0.2,0-0.4,0.1-0.5,0.3
	c-0.1,0.2,0,0.5,0.2,0.7c0.7,0.3,1.3,0.7,2,1.1c0.1,0,0.2,0.1,0.3,0.1c0.2,0,0.3-0.1,0.4-0.2c0.1-0.2,0.1-0.5-0.2-0.7
	c-0.7-0.4-1.3-0.8-2-1.1C63.7,22.2,63.6,22.1,63.5,22.1z M67.4,24.5c-0.1,0-0.2,0.1-0.3,0.2c-0.2,0.2-0.1,0.5,0.1,0.7
	c0.3,0.2,0.7,0.5,1,0.7c0.1,0.1,0.2,0.1,0.3,0.1c0.2,0,0.3-0.1,0.4-0.2c0.2-0.2,0.1-0.5-0.1-0.7c-0.3-0.3-0.7-0.5-1-0.7
	C67.7,24.5,67.5,24.5,67.4,24.5z"/>
<image style="display:none;overflow:visible;" width="100" height="100" xlink:href="icons8-pause-100.png"  transform="matrix(0.5417 0 0 0.5417 23.7799 22.9167)">
</image>
<g>
	<polygon class="st0" points="38.4,31.6 38.4,68.4 68,50 	"/>
	<polygon class="st1" points="39.9,34.5 39.9,65.7 65,50.1 	"/>
</g>
</svg>
